<svg width="133" height="153" viewBox="0 0 133 153" fill="none" xmlns="http://www.w3.org/2000/svg">
<style>
  .logo { fill: #0C2849; }
  @media (prefers-color-scheme: dark) {
    .logo { fill: white; }
  }
</style>
<path class="logo" fill-rule="evenodd" clip-rule="evenodd" d="M66.0526 0C72.9153 0.000273256 78.479 5.56366 78.479 12.4264C78.479 14.0702 78.1557 15.638 77.576 17.0742L111.495 36.6573C113.732 34.4899 116.779 33.1542 120.14 33.1542C127.003 33.1545 132.566 38.7179 132.566 45.5806C132.566 51.3398 128.647 56.1812 123.332 57.5904V96.9487C128.258 98.5993 131.809 103.249 131.809 108.731C131.809 115.594 126.245 121.157 119.383 121.157C115.823 121.157 112.615 119.658 110.35 117.26L77.6589 136.135C78.1864 137.514 78.479 139.009 78.479 140.574C78.479 147.436 72.9153 153 66.0526 153C59.1897 153 53.6262 147.437 53.6262 140.574C53.6262 139.051 53.9005 137.592 54.4019 136.243L20.8694 116.883C18.6527 118.937 15.6873 120.196 12.4264 120.196C5.56349 120.196 0 114.632 0 107.769C0 102.263 3.58196 97.596 8.54214 95.9648V55.8753C3.8721 54.0881 0.555183 49.5675 0.555183 44.269C0.555183 37.4061 6.11867 31.8426 12.9816 31.8426C16.5323 31.8428 19.7325 33.3347 21.997 35.7229L54.4848 16.966C53.9324 15.5594 53.6262 14.029 53.6262 12.4264C53.6262 5.56349 59.1897 0 66.0526 0ZM65.8393 136.437C63.6505 136.547 61.9105 138.357 61.9105 140.574C61.9105 142.861 63.765 144.716 66.0526 144.716C68.34 144.715 70.1948 142.861 70.1948 140.574C70.1948 140.525 70.1914 140.476 70.1897 140.428C70.1227 138.488 68.7236 136.887 66.8778 136.513C66.7036 136.478 66.5253 136.455 66.3439 136.443C66.3163 136.441 66.2887 136.438 66.261 136.437L66.0526 136.431C65.9813 136.431 65.9098 136.433 65.8393 136.437ZM109.362 51.7635C101.867 77.4218 88.1139 97.7827 70.0795 111.814L70.0785 128.818C70.8023 129.066 71.496 129.377 72.1526 129.748L106.988 109.636C106.966 109.337 106.956 109.035 106.956 108.731C106.956 103.392 110.322 98.8411 115.048 97.0822V56.9149C112.653 55.8374 110.663 54.0256 109.362 51.7635ZM25.3726 43.3397C25.3953 43.6465 25.408 43.9564 25.408 44.269C25.408 47.2434 24.3608 49.9723 22.6179 52.1114C26.2568 67.1732 31.4107 81.6138 37.8344 94.2315C44.6247 107.569 52.7336 118.673 61.7952 126.381V78.5913C50.564 69.1145 41.1918 54.7463 35.7279 37.3621L25.3726 43.3397ZM16.8264 96.1468C21.5172 97.9236 24.8528 102.456 24.8528 107.769C24.8528 108.372 24.8083 108.964 24.7254 109.544L45.6454 121.623C39.9705 114.723 34.8905 106.708 30.4522 97.9903C24.9537 87.19 20.3756 75.1927 16.8264 62.671V96.1468ZM119.169 104.594C116.98 104.705 115.24 106.515 115.24 108.731C115.24 110.62 116.507 112.212 118.235 112.71C118.599 112.815 118.984 112.873 119.383 112.873C121.67 112.873 123.525 111.018 123.525 108.731C123.525 108.295 123.456 107.875 123.332 107.481L123.219 107.173C122.604 105.658 121.119 104.589 119.383 104.589C119.311 104.589 119.24 104.59 119.169 104.594ZM12.4254 103.628C10.657 103.628 9.1484 104.737 8.55427 106.297C8.38018 106.754 8.28426 107.251 8.28426 107.769C8.28426 108.399 8.42594 108.996 8.67764 109.531C8.74487 109.674 8.8196 109.812 8.90215 109.945C9.63214 111.125 10.9372 111.911 12.4264 111.911C13.347 111.911 14.1971 111.61 14.8848 111.102C14.9591 111.047 15.0318 110.99 15.1022 110.93C15.1896 110.856 15.274 110.779 15.355 110.698C16.1038 109.948 16.5675 108.913 16.5675 107.77C16.5675 105.483 14.7128 103.628 12.4254 103.628ZM87.8929 32.596C86.4114 35.3786 84.6638 37.8322 82.5453 39.9267C79.1539 43.2794 75.0342 45.4951 70.0795 46.8184L70.0785 101.025C85.8179 86.9086 97.6504 66.8799 103.458 41.5821L87.8929 32.596ZM43.0929 33.1098C47.1731 46.9896 53.8649 58.651 61.7952 67.16V24.1034C61.1936 23.8841 60.614 23.6193 60.0599 23.3136L43.0929 33.1098ZM120.14 41.4385C120.026 41.4385 119.912 41.4436 119.8 41.4527L119.801 41.4537C118.154 41.5866 116.779 42.6832 116.241 44.179C116.201 44.2895 116.166 44.4022 116.135 44.5168C116.133 44.5276 116.129 44.5383 116.126 44.5492C116.042 44.8789 115.998 45.2246 115.998 45.5806C115.998 47.8683 117.852 49.7228 120.14 49.7228C120.196 49.7228 120.252 49.7209 120.307 49.7187C120.851 49.6969 121.368 49.5699 121.838 49.3577C121.896 49.3315 121.954 49.3046 122.011 49.2758C122.511 49.0217 122.952 48.6689 123.309 48.2433C123.915 47.5231 124.282 46.5953 124.282 45.5806C124.282 43.2932 122.427 41.4388 120.14 41.4385ZM12.9816 40.1269C10.9226 40.1269 9.21497 41.6293 8.89405 43.5976C8.85862 43.8162 8.83945 44.0404 8.83945 44.269C8.83945 46.4853 10.5795 48.2953 12.7682 48.4061C12.8387 48.4097 12.9102 48.4112 12.9816 48.4112C13.0528 48.4112 13.1236 48.4097 13.1939 48.4061C15.3827 48.2953 17.1237 46.4853 17.1237 44.269C17.1237 42.3721 15.848 40.7735 14.1081 40.2826C13.7499 40.1816 13.3721 40.1269 12.9816 40.1269ZM71.9261 23.3774C71.3375 23.6937 70.7201 23.9619 70.0795 24.1813V38.1428C72.8196 37.1448 74.9578 35.7776 76.7205 34.0351C78.2062 32.5661 79.5205 30.7365 80.7109 28.4488L71.9261 23.3774ZM66.0526 8.28426C63.765 8.28426 61.9105 10.1388 61.9105 12.4264C61.9105 12.9965 62.0247 13.54 62.2331 14.0343C62.318 14.2356 62.4192 14.4282 62.5334 14.6117C62.5921 14.7059 62.6538 14.7979 62.7195 14.8868C62.7304 14.9015 62.7418 14.9157 62.7529 14.9303C62.8597 15.0708 62.9752 15.2041 63.0987 15.3297C63.8503 16.094 64.8961 16.5685 66.0526 16.5685C68.2132 16.5683 69.9865 14.9137 70.1766 12.8026C70.1877 12.6787 70.1948 12.5532 70.1948 12.4264C70.1948 10.1389 68.34 8.28454 66.0526 8.28426Z"/>
</svg>
